<?xml version="1.0" encoding="iso-8859-1"?>
<!-- Generator: Adobe Illustrator 19.0.0, SVG Export Plug-In . SVG Version: 6.00 Build 0)  -->
<svg version="1.1" id="Capa_1" xmlns="http://www.w3.org/2000/svg" xmlns:xlink="http://www.w3.org/1999/xlink" x="0px" y="0px"
	 viewBox="0 0 512 512" style="enable-background:new 0 0 512 512;" xml:space="preserve">
<g>
	<path style="fill:#3C3A41;" d="M422,120c-8.291,0-15-6.709-15-15V75c0-24.814-20.186-45-45-45H151c-8.291,0-15-6.709-15-15
		s6.709-15,15-15h211c41.353,0,75,33.647,75,75v30C437,113.291,430.291,120,422,120z"/>
	<path style="fill:#3C3A41;" d="M362,512H151c-8.291,0-15-6.709-15-15s6.709-15,15-15h211c24.814,0,45-20.186,45-45v-30
		c0-8.291,6.709-15,15-15s15,6.709,15,15v30C437,478.353,403.353,512,362,512z"/>
</g>
<path style="fill:#A4D9F5;" d="M181,422h-60c-8.401,0-15,6.599-15,15v30c0,24.901,20.099,45,45,45s45-20.099,45-45v-30
	C196,428.599,189.401,422,181,422z"/>
<path style="fill:#81C8EE;" d="M196,437v30c0,24.901-20.099,45-45,45v-90h30C189.401,422,196,428.599,196,437z"/>
<path style="fill:#A4D9F5;" d="M151,0c-24.901,0-45,20.099-45,45v30c0,8.401,6.599,15,15,15h60c8.401,0,15-6.599,15-15V45
	C196,20.099,175.901,0,151,0z"/>
<path style="fill:#81C8EE;" d="M181,90h-30V0c24.901,0,45,20.099,45,45v30C196,83.401,189.401,90,181,90z"/>
<path style="fill:#FEDB41;" d="M286,105v15l-30,30H45l-30-30v-15c0-24.901,20.099-45,45-45h181C265.901,60,286,80.099,286,105z"/>
<path style="fill:#FEA832;" d="M286,105v15l-30,30H151V60h90C265.901,60,286,80.099,286,105z"/>
<path style="fill:#FEDB41;" d="M286,392v15c0,24.901-20.099,45-45,45H60c-24.901,0-45-20.099-45-45v-15l30-30h211L286,392z"/>
<path style="fill:#FEA832;" d="M256,362l30,30v15c0,24.901-20.099,45-45,45h-90v-90H256z"/>
<rect x="15" y="120" style="fill:#17CEB4;" width="271" height="272"/>
<rect x="151" y="120" style="fill:#11AD94;" width="135" height="272"/>
<path style="fill:#B7E0F6;" d="M392,331c-8.291,0-15-6.709-15-15v-60c0-8.291,6.709-15,15-15s15,6.709,15,15v60
	C407,324.291,400.291,331,392,331z"/>
<path style="fill:#A4D9F5;" d="M452,331c-8.291,0-15-6.709-15-15v-60c0-8.291,6.709-15,15-15s15,6.709,15,15v60
	C467,324.291,460.291,331,452,331z"/>
<path style="fill:#FEDB41;" d="M194.5,262.599l-30,60c-2.7,5.402-8.1,8.401-13.5,8.401c-2.401,0-4.501-0.601-6.599-1.5
	c-7.5-3.9-10.501-12.9-6.901-20.099L156.7,271H121c-5.099,0-9.901-2.701-12.9-7.2c-2.701-4.2-2.701-9.901-0.601-14.399l30-60
	C140.2,183.999,145.6,181,151,181c2.401,0,4.501,0.601,6.599,1.5c7.5,3.9,10.501,12.9,6.901,20.099L145.3,241H181
	c5.099,0,9.901,2.701,12.9,7.2C196.601,252.4,196.601,258.1,194.5,262.599z"/>
<path style="fill:#17CEB4;" d="M452,90h-60c-24.901,0-45,20.099-45,45v61c0,8.401,6.599,15,15,15h120c8.401,0,15-6.599,15-15v-61
	C497,110.099,476.901,90,452,90z"/>
<g>
	<path style="fill:#FEA832;" d="M164.5,202.599L151,229.6V181c2.401,0,4.501,0.601,6.599,1.5
		C165.099,186.4,168.1,195.399,164.5,202.599z"/>
	<path style="fill:#FEA832;" d="M194.5,262.599l-30,60c-2.7,5.402-8.1,8.401-13.5,8.401v-48.6l5.7-11.4H151v-30h30
		c5.099,0,9.901,2.701,12.9,7.2C196.601,252.4,196.601,258.1,194.5,262.599z"/>
</g>
<path style="fill:#11AD94;" d="M497,135v61c0,8.401-6.599,15-15,15h-60V90h30C476.901,90,497,110.099,497,135z"/>
<path style="fill:#17CEB4;" d="M482,301H362c-8.401,0-15,6.599-15,15v61c0,24.901,20.099,45,45,45h60c24.901,0,45-20.099,45-45v-61
	C497,307.599,490.401,301,482,301z"/>
<path style="fill:#11AD94;" d="M497,316v61c0,24.901-20.099,45-45,45h-30V301h60C490.401,301,497,307.599,497,316z"/>
<g>
</g>
<g>
</g>
<g>
</g>
<g>
</g>
<g>
</g>
<g>
</g>
<g>
</g>
<g>
</g>
<g>
</g>
<g>
</g>
<g>
</g>
<g>
</g>
<g>
</g>
<g>
</g>
<g>
</g>
</svg>
